<svg xmlns="http://www.w3.org/2000/svg" xmlns:xlink="http://www.w3.org/1999/xlink" width="17" height="15" viewBox="0 0 17 15">
    <defs>
        <path id="96k4mltxca" d="M0 0H20V20H0z"/>
    </defs>
    <g fill="none" fill-rule="evenodd">
        <g>
            <g>
                <g transform="translate(-26 -319) translate(24 316)">
                    <mask id="ftay9k7eob" fill="#fff">
                        <use xlink:href="#96k4mltxca"/>
                    </mask>
                    <path fill="#AEAEAE" d="M11.107 8.682v3.82H9.579v-3.82h1.528zm-7.842 8.404c-.588 0-.956-.637-.661-1.146L9.682 3.714c.294-.508 1.028-.508 1.322 0l7.078 12.226c.295.51-.073 1.146-.661 1.146H3.265c-.392 0-.392 0 0 0zm12.83-1.527l-5.752-9.937-5.753 9.937h11.506zm-4.988-2.294v1.528H9.579v-1.528h1.528z" mask="url(#ftay9k7eob)"/>
                </g>
            </g>
        </g>
    </g>
</svg>
