<svg xmlns="http://www.w3.org/2000/svg" width="28" height="32" viewBox="0 0 28 32">
    <g fill="none" fill-rule="evenodd">
        <g fill="#838383">
            <g>
                <g>
                    <path d="M27.47 4.743C27.05 3.08 24.754.284 14.023.284c-5.056 0-8.725.555-10.908 1.65C.704 3.144.512 4.78.512 5.262v9.458c.011 5.896 3.196 11.33 8.334 14.222l4.132 2.326c.649.364 1.441.364 2.09 0l4.132-2.326c5.139-2.892 8.323-8.326 8.334-14.222V5.262c0-.175-.021-.35-.064-.519zM25.4 14.7c.001 5.137-2.769 9.875-7.245 12.394l-4.132 2.347-4.131-2.325c-4.477-2.52-7.247-7.258-7.247-12.395V5.262s0-2.844 11.378-2.844c10.667 0 11.378 2.844 11.378 2.844V14.7z" transform="translate(-582 -109) translate(582 109)"/>
                    <path d="M20.38 10.197l-7.068 7.069-4.224-4.224c-.42-.392-1.075-.38-1.481.026-.407.406-.418 1.061-.027 1.481l4.978 4.978c.417.416 1.091.416 1.508 0l7.822-7.822c.392-.42.38-1.075-.026-1.482-.406-.406-1.061-.417-1.482-.026z" transform="translate(-582 -109) translate(582 109)"/>
                </g>
            </g>
        </g>
    </g>
</svg>
