<svg xmlns="http://www.w3.org/2000/svg" width="28" height="32" viewBox="0 0 28 32">
    <g fill="none" fill-rule="evenodd">
        <g fill="#CF2E28">
            <g>
                <path d="M26.958 4.459C26.538 2.795 24.242 0 13.511 0 8.455 0 4.786.555 2.603 1.65.192 2.859 0 4.494 0 4.978v9.458c.011 5.896 3.196 11.33 8.334 14.222l4.132 2.325c.649.365 1.441.365 2.09 0l4.132-2.325c5.139-2.892 8.323-8.326 8.334-14.222V4.978c0-.175-.021-.35-.064-.52zm-2.07 9.955c.001 5.137-2.769 9.875-7.245 12.395l-4.132 2.347L9.38 26.83c-4.477-2.52-7.247-7.257-7.247-12.394V4.978s0-2.845 11.378-2.845c10.667 0 11.378 2.845 11.378 2.845v9.436z" transform="translate(-582 -109) translate(582.512 109.284)"/>
                <path d="M19.868 9.913L12.8 16.98l-4.224-4.224c-.42-.391-1.075-.38-1.481.026-.407.407-.418 1.062-.027 1.482l4.978 4.978c.417.416 1.091.416 1.508 0l7.822-7.823c.392-.42.38-1.075-.026-1.481-.406-.406-1.061-.418-1.482-.026z" transform="translate(-582 -109) translate(582.512 109.284)"/>
            </g>
        </g>
    </g>
</svg>
