<svg xmlns="http://www.w3.org/2000/svg" xmlns:xlink="http://www.w3.org/1999/xlink" width="18" height="18" viewBox="0 0 18 18">
    <defs>
        <path id="p62k0jg4ca" d="M0 0H20V20H0z"/>
    </defs>
    <g fill="none" fill-rule="evenodd">
        <g>
            <g transform="translate(-26 -542) translate(25 541)">
                <mask id="9wopsj1lab" fill="#fff">
                    <use xlink:href="#p62k0jg4ca"/>
                </mask>
                <path fill="#AEAEAE" d="M10 13.333c-1.84 0-3.333-1.492-3.333-3.333 0-1.84 1.492-3.333 3.333-3.333 1.84 0 3.333 1.492 3.333 3.333 0 1.84-1.492 3.333-3.333 3.333zm0-1.666c-.92 0-1.667-.747-1.667-1.667S9.08 8.333 10 8.333s1.667.747 1.667 1.667-.747 1.667-1.667 1.667zM3.541 4.52c.196-.34.602-.496.975-.378l1.53.488c.205-.15.417-.288.635-.413.208-.12.424-.229.645-.326l.343-1.57c.084-.382.423-.654.814-.654h3.034c.391 0 .73.272.814.655l.343 1.57c.235.102.463.218.683.347.205.119.404.25.596.39l1.531-.487c.373-.118.779.039.974.378l1.517 2.627c.196.339.13.769-.16 1.033l-1.188 1.082c.028.245.04.492.04.737.001.246-.012.493-.04.74l1.188 1.081c.29.264.356.694.16 1.033l-1.517 2.627c-.195.34-.6.496-.974.378l-1.53-.488c-.196.143-.397.275-.605.396-.217.126-.443.24-.675.343l-.343 1.57c-.084.382-.423.654-.814.654H8.483c-.391 0-.73-.272-.814-.655l-.343-1.57c-.219-.095-.432-.203-.637-.32-.221-.127-.436-.266-.642-.418l-1.531.488c-.373.118-.779-.039-.975-.378l-1.516-2.627c-.196-.339-.13-.769.16-1.033l1.188-1.082c-.028-.246-.041-.492-.04-.738-.001-.246.012-.492.04-.738L2.185 8.18c-.29-.264-.356-.694-.16-1.033L3.54 4.52zm7.686.557l.778.34c.176.078.347.165.511.261l.003.002c.154.089.303.187.447.293l.684.502 1.7-.541.846 1.465-1.319 1.202.094.844c.02.184.03.369.03.553 0 .187-.01.372-.03.557l-.094.844 1.32 1.202-.847 1.465-1.7-.541-.684.502c-.146.108-.297.206-.453.297-.165.096-.334.182-.508.258l-.778.341-.38 1.744H9.153l-.381-1.744-.778-.34c-.164-.073-.323-.153-.477-.241l-.003-.002c-.166-.095-.326-.199-.48-.313l-.685-.502-1.7.541-.847-1.465 1.32-1.202-.094-.844c-.02-.184-.03-.37-.03-.553 0-.188.01-.373.03-.557l.094-.844L3.803 7.4l.846-1.465 1.701.541.684-.502c.153-.113.312-.216.476-.31l.002-.001c.156-.09.317-.172.483-.244l.778-.341.381-1.744h1.692l.381 1.744z" mask="url(#9wopsj1lab)"/>
            </g>
        </g>
    </g>
</svg>
