<svg xmlns="http://www.w3.org/2000/svg" width="36" height="32" viewBox="0 0 36 32">
    <g fill="none" fill-rule="evenodd">
        <g fill="#CF2E28">
            <g>
                <path d="M33.254 5.358h-7.535V2.847c0-1.388-1.124-2.512-2.512-2.512H13.161c-1.387 0-2.512 1.124-2.512 2.512v2.511H3.114C1.727 5.358.603 6.483.603 7.87V28.8c0 1.387 1.124 2.512 2.511 2.512h30.14c1.387 0 2.512-1.125 2.512-2.512V7.87c0-1.387-1.125-2.512-2.512-2.512zM13.161 2.847h10.046v2.511H13.161V2.847zM33.254 7.87v6.287c-.194-.002-.386.04-.561.126-3.363 1.559-6.882 2.754-10.499 3.566-.372-.966-1.3-1.604-2.335-1.607h-3.35c-1.061.003-2.006.673-2.36 1.674-3.673-.776-7.238-1.996-10.616-3.633-.144-.072-.3-.114-.46-.126V7.87h30.181zM19.859 18.753v2.512h-3.35v-2.512h3.35zM3.114 28.8V16.903c3.478 1.61 7.13 2.812 10.884 3.584v.778c0 1.387 1.125 2.512 2.512 2.512h3.349c1.387 0 2.511-1.125 2.511-2.512v-.904c3.772-.736 7.431-1.963 10.884-3.65V28.8H3.114z" transform="translate(-1019 -109) translate(1019 109)"/>
            </g>
        </g>
    </g>
</svg>
