<svg xmlns="http://www.w3.org/2000/svg" width="20" height="20" viewBox="0 0 20 20">
    <g fill="none" fill-rule="evenodd">
        <g>
            <g>
                <g fill="#FFF" fill-rule="nonzero" stroke="#FFF">
                    <g>
                        <g>
                            <path d="M10.142 18.248c-.325 0-.644-.085-.926-.247l-2.452-1.416c-.183-.114-.242-.352-.135-.538.108-.186.344-.254.534-.152l2.452 1.415c.326.188.728.188 1.054 0l6.262-3.615c.325-.189.526-.537.527-.913V5.55c-.001-.377-.202-.724-.527-.913l-6.262-3.613c-.326-.187-.728-.187-1.054 0L3.354 4.64c-.326.188-.527.536-.527.912v4.605c0 .142-.076.274-.2.345-.123.072-.275.072-.399 0-.123-.07-.2-.203-.2-.345V5.55c.002-.661.354-1.272.927-1.604L9.216.332c.573-.33 1.279-.33 1.852 0l6.262 3.615c.572.332.925.943.926 1.604v7.23c-.001.662-.354 1.273-.926 1.604l-6.262 3.616c-.281.162-.6.247-.926.247z" transform="translate(-152 -260) translate(152 260) translate(.833 .833)"/>
                            <path d="M10.142 9.562c-.07 0-.139-.018-.2-.053L2.629 5.287c-.183-.114-.242-.352-.134-.539.107-.186.343-.253.533-.152l7.115 4.108 7.07-4.08c.189-.102.425-.035.533.152.107.186.048.424-.135.538L10.343 9.51c-.062.035-.13.053-.2.052z" transform="translate(-152 -260) translate(152 260) translate(.833 .833)"/>
                            <path d="M10.142 18.006c-.22 0-.399-.179-.399-.4V9.166c0-.22.179-.4.4-.4.22 0 .398.18.398.4v8.442c0 .22-.178.399-.399.399zM13.331 11.442c-.22 0-.399-.179-.399-.4v-3.44L5.417 3.265c-.182-.114-.242-.352-.134-.538.107-.187.344-.254.533-.153l7.715 4.454c.123.071.2.203.2.346v2.968l1.431-.853-.13-3.11-7.528-4.343c-.183-.114-.242-.352-.135-.539.108-.186.344-.254.534-.152l7.718 4.454c.118.069.193.193.199.33l.148 3.566c.006.147-.068.285-.195.36l-2.239 1.333c-.061.036-.131.055-.203.055zM7.6 13.513c-.125-.005-.243-.059-.33-.15-.519-.518-1.157-.902-1.86-1.115-1.607-.5-3.36-.07-4.553 1.117-.084.09-.2.14-.322.143-.122.002-.24-.044-.328-.13-.088-.086-.137-.205-.135-.328.002-.124.054-.241.145-.325.83-.819 1.815-1.343 2.969-1.515 1.817-.271 3.396.236 4.724 1.51.124.114.175.286.132.449-.042.162-.17.289-.333.328-.036.007-.072.013-.109.016z" transform="translate(-152 -260) translate(152 260) translate(.833 .833)"/>
                            <path d="M4.156 12.786c.973.018 1.9.413 2.587 1.102.125.112.178.283.138.445-.04.163-.165.29-.327.332-.162.042-.333-.009-.447-.131-.6-.603-1.438-.906-2.285-.827-.68.048-1.32.341-1.8.825-.112.125-.283.178-.445.138-.163-.039-.29-.164-.332-.326-.042-.162.008-.334.13-.447.474-.475 1.065-.814 1.714-.984.348-.089.707-.131 1.067-.127z" transform="translate(-152 -260) translate(152 260) translate(.833 .833)"/>
                            <path d="M4.06 14.41c.58-.002 1.137.229 1.546.641.121.112.172.282.132.443-.04.16-.166.286-.326.327-.16.041-.33-.008-.443-.13-.498-.493-1.3-.496-1.802-.005-.082.083-.193.133-.31.14-.187.009-.36-.099-.436-.27-.075-.171-.038-.372.095-.504.408-.411.964-.642 1.544-.641zM4.062 16.005c.33 0 .597.267.597.596 0 .33-.267.597-.597.597-.33 0-.597-.267-.597-.597 0-.33.268-.596.597-.596z" transform="translate(-152 -260) translate(152 260) translate(.833 .833)"/>
                        </g>
                    </g>
                </g>
                <path d="M0 0H20V20H0z" transform="translate(-152 -260) translate(152 260)"/>
            </g>
        </g>
    </g>
</svg>
