<svg xmlns="http://www.w3.org/2000/svg" xmlns:xlink="http://www.w3.org/1999/xlink" width="60" height="60" viewBox="0 0 60 60">
    <defs>
        <filter id="wu8xa792sa" width="137.5%" height="137.5%" x="-18.8%" y="-14.6%" filterUnits="objectBoundingBox">
            <feMorphology in="SourceAlpha" operator="dilate" radius="2" result="shadowSpreadOuter1"/>
            <feOffset dy="2" in="shadowSpreadOuter1" result="shadowOffsetOuter1"/>
            <feGaussianBlur in="shadowOffsetOuter1" result="shadowBlurOuter1" stdDeviation="2"/>
            <feComposite in="shadowBlurOuter1" in2="SourceAlpha" operator="out" result="shadowBlurOuter1"/>
            <feColorMatrix in="shadowBlurOuter1" values="0 0 0 0 0 0 0 0 0 0 0 0 0 0 0 0 0 0 0.5 0"/>
        </filter>
        <rect id="kr9z1wzvtb" width="48" height="48" x="0" y="0" rx="8"/>
    </defs>
    <g fill="none" fill-rule="evenodd">
        <g>
            <g>
                <g transform="translate(-1303 -205) translate(1309 209)">
                    <use fill="#000" filter="url(#wu8xa792sa)" xlink:href="#kr9z1wzvtb"/>
                    <rect width="50" height="50" x="-1" y="-1" fill="#3E3E3E" stroke="#FDFDFD" stroke-width="2" rx="8"/>
                </g>
                <g fill-rule="nonzero">
                    <g>
                        <path d="M10.278 4.09C10.278 1.836 8.434 0 6.167 0 3.899 0 2.056 1.835 2.056 4.09v17.927C.742 23.183 0 24.824 0 26.591c0 3.383 2.767 6.136 6.167 6.136s6.166-2.753 6.166-6.136c0-1.767-.742-3.408-2.055-4.574V4.091zM8.222 8.183H7.194c-.567 0-1.027.458-1.027 1.023 0 .564.46 1.022 1.027 1.022h1.028v2.046h-4.11V4.09c0-1.127.922-2.046 2.055-2.046 1.132 0 2.055.919 2.055 2.046v4.09z" transform="translate(-1303 -205) translate(1309 209) translate(17 7) translate(0 .636)"/>
                    </g>
                </g>
                <g fill="#FDFDFD" fill-rule="nonzero">
                    <g>
                        <path d="M10.833 4.125C10.833 1.85 8.89 0 6.5 0S2.167 1.85 2.167 4.125v18.076C.782 23.376 0 25.03 0 26.812 0 30.224 2.916 33 6.5 33s6.5-2.776 6.5-6.188c0-1.782-.782-3.436-2.167-4.611V4.125zM8.667 8.25H7.583c-.598 0-1.083.462-1.083 1.031 0 .57.485 1.031 1.083 1.031h1.084v2.063H4.333v-8.25c0-1.136.973-2.063 2.167-2.063s2.167.927 2.167 2.063V8.25z" transform="translate(-1303 -205) translate(1309 209) translate(17 8)"/>
                    </g>
                </g>
            </g>
        </g>
    </g>
</svg>
