<svg xmlns="http://www.w3.org/2000/svg" width="24" height="24" viewBox="0 0 24 24">
    <g fill="none" fill-rule="evenodd">
        <g>
            <g>
                <path d="M0 0H24V24H0z" transform="translate(-18 -392) translate(18 392)"/>
                <path fill="#AEAEAE" fill-rule="nonzero" stroke="#AEAEAE" d="M1 17.522v4.945c0 .268.215.485.48.485h4.562c.266 0 .481-.217.481-.485v-4.945c0-.267-.215-.485-.48-.485H4.35v-2.8c0-.535.432-.97.962-.97h6.206v3.77H9.611c-.266 0-.481.218-.481.485v4.945c0 .268.215.485.48.485h4.78c.265 0 .48-.217.48-.485v-4.945c0-.267-.215-.485-.48-.485h-1.91v-3.77h5.99c.53 0 .962.435.962.97v2.8H17.74c-.265 0-.48.218-.48.485v4.945c0 .268.215.485.48.485h4.78c.265 0 .48-.217.48-.485v-4.945c0-.267-.215-.485-.48-.485h-2.127v-2.8c0-1.07-.862-1.94-1.923-1.94h-5.99V8.524h2.344c.265 0 .48-.217.48-.485V2.485c0-.268-.215-.485-.48-.485H8.959c-.266 0-.48.217-.48.485V8.04c0 .268.214.485.48.485h2.56v3.771H5.313c-1.06 0-1.924.87-1.924 1.94v2.801H1.481c-.266 0-.481.218-.481.485zm12.908 4.46h-3.816v-3.975h3.816v3.975zm8.13 0h-3.817v-3.975h3.817v3.975zM9.44 2.97h4.903v4.585H9.44V2.97zM1.962 18.007h3.6v3.975h-3.6v-3.975z" transform="translate(-18 -392) translate(18 392)"/>
            </g>
        </g>
    </g>
</svg>
