<svg xmlns="http://www.w3.org/2000/svg" xmlns:xlink="http://www.w3.org/1999/xlink" width="60" height="60" viewBox="0 0 60 60">
    <defs>
        <filter id="qe6319uata" width="137.5%" height="137.5%" x="-18.8%" y="-14.6%" filterUnits="objectBoundingBox">
            <feMorphology in="SourceAlpha" operator="dilate" radius="2" result="shadowSpreadOuter1"/>
            <feOffset dy="2" in="shadowSpreadOuter1" result="shadowOffsetOuter1"/>
            <feGaussianBlur in="shadowOffsetOuter1" result="shadowBlurOuter1" stdDeviation="2"/>
            <feComposite in="shadowBlurOuter1" in2="SourceAlpha" operator="out" result="shadowBlurOuter1"/>
            <feColorMatrix in="shadowBlurOuter1" values="0 0 0 0 0 0 0 0 0 0 0 0 0 0 0 0 0 0 0.5 0"/>
        </filter>
        <rect id="l3rm6qy0qb" width="48" height="48" x="0" y="0" rx="8"/>
    </defs>
    <g fill="none" fill-rule="evenodd">
        <g>
            <g>
                <g transform="translate(-985 -205) translate(991 209)">
                    <use fill="#000" filter="url(#qe6319uata)" xlink:href="#l3rm6qy0qb"/>
                    <rect width="50" height="50" x="-1" y="-1" fill="#E87F00" stroke="#FDFDFD" stroke-width="2" rx="8"/>
                </g>
                <path fill="#FDFDFD" d="M31.2 19.143h-1.8V14c0-1.105-.895-2-2-2h-1.6v7.143h-3.6V12h-1.6c-1.105 0-2 .895-2 2v5.143h-1.8c-.994 0-1.8.8-1.8 1.786v7.142l5.4 5.358V36c0 .552.448 1 1 1h5.2c.552 0 1-.448 1-1v-2.571L33 28.07V20.93c0-.986-.806-1.786-1.8-1.786z" transform="translate(-985 -205) translate(991 209)"/>
            </g>
        </g>
    </g>
</svg>
