<svg xmlns="http://www.w3.org/2000/svg" xmlns:xlink="http://www.w3.org/1999/xlink" width="60" height="60" viewBox="0 0 60 60">
    <defs>
        <filter id="xdueexcmga" width="137.5%" height="137.5%" x="-18.8%" y="-14.6%" filterUnits="objectBoundingBox">
            <feMorphology in="SourceAlpha" operator="dilate" radius="2" result="shadowSpreadOuter1"/>
            <feOffset dy="2" in="shadowSpreadOuter1" result="shadowOffsetOuter1"/>
            <feGaussianBlur in="shadowOffsetOuter1" result="shadowBlurOuter1" stdDeviation="2"/>
            <feComposite in="shadowBlurOuter1" in2="SourceAlpha" operator="out" result="shadowBlurOuter1"/>
            <feColorMatrix in="shadowBlurOuter1" values="0 0 0 0 0 0 0 0 0 0 0 0 0 0 0 0 0 0 0.5 0"/>
        </filter>
        <rect id="ylxxphblmb" width="48" height="48" x="0" y="0" rx="8"/>
    </defs>
    <g fill="none" fill-rule="evenodd">
        <g>
            <g>
                <g transform="translate(-879 -205) translate(885 209)">
                    <use fill="#000" filter="url(#xdueexcmga)" xlink:href="#ylxxphblmb"/>
                    <rect width="50" height="50" x="-1" y="-1" fill="#3E3E3E" stroke="#FDFDFD" stroke-width="2" rx="8"/>
                </g>
                <g>
                    <path d="M0 0H26V26H0z" transform="translate(-879 -205) translate(885 209) translate(13 12)"/>
                    <path fill="#FDFDFD" d="M.59 3.054C-.162 4.191-.012 5.51.07 6.264c.114 1.079.669 2.305 1.504 3.464.986 1.369 2.401 2.356 3.124 3.21.869 1.02 1.866 4.178 2.518 5.565.454.966 1.406 2.147 2.228 2.84 1.038.874 3.212 1.761 5.208 1.647 2.033-.116 3.71-.63 4.687-1.364.96-.718 2.18-1.936 2.75-2.981.577-1.063.998-3.144.896-4.345-.144-1.704-.762-3.447-2.112-4.856-1.793-1.874-5.295-2.584-6.8-3.294-2.003-.945-3.725-4.48-5.7-5.48C6.58-.24 4.785-.041 4.033.215 2.734.656 1.339 1.923.59 3.055zm7.431 13.39c-.14-.516.649-1.144.649-1.653 0-.527-.782-1.157-.645-1.654.139-.505 1.14-.663 1.406-1.113.265-.449-.094-1.38.282-1.75.372-.364 1.318-.011 1.784-.274.45-.253.612-1.237 1.137-1.375.525-.137 1.165.637 1.685.637.536 0 1.178-.768 1.685-.633.514.136.674 1.12 1.132 1.38.458.26 1.406-.093 1.783.277.37.365.011 1.293.279 1.75.259.442 1.26.601 1.4 1.117.14.515-.648 1.144-.648 1.653 0 .527.783 1.157.646 1.654-.14.505-1.141.663-1.406 1.112-.265.449.095 1.38-.282 1.75-.371.364-1.317.012-1.783.275-.45.253-.612 1.237-1.138 1.374-.525.138-1.165-.636-1.684-.637-.537 0-1.18.768-1.686.633-.514-.137-.674-1.12-1.132-1.38-.458-.26-1.407.093-1.783-.276-.371-.365-.012-1.294-.28-1.751-.259-.441-1.26-.6-1.4-1.116zm1.975-.519c.635 2.338 3.082 3.732 5.463 3.11 2.38-.622 3.799-3.025 3.164-5.364-.634-2.338-3.082-3.732-5.462-3.11-2.381.622-3.799 3.026-3.165 5.364zm3.039-1.213c-.049.69.483 1.29 1.187 1.338.704.047 1.314-.475 1.363-1.166.049-.69-.483-1.29-1.187-1.337-.704-.048-1.315.474-1.363 1.165zM1.49 5.493c.025-.358.966-.531 1.08-.856.117-.337-.515-1.04-.317-1.328.201-.292 1.103.02 1.373-.21.269-.23.078-1.15.401-1.305.318-.153.94.557 1.296.49.344-.066.647-.957 1.013-.932.366.024.542.947.874 1.059.342.115 1.058-.505 1.351-.31.298.197-.02 1.082.215 1.346.234.265 1.172.078 1.33.394.156.312-.568.923-.499 1.272.067.338.975.636.95.995-.026.359-.966.531-1.08.857-.117.336.514 1.039.316 1.327-.2.292-1.103-.02-1.372.21-.269.23-.08 1.15-.401 1.306-.318.152-.94-.558-1.296-.49-.344.066-.647.957-1.014.931-.365-.024-.541-.947-.873-1.059-.342-.115-1.058.505-1.352.31-.298-.197.02-1.082-.215-1.347-.234-.264-1.171-.077-1.33-.393-.155-.312.569-.923.5-1.272-.068-.337-.975-.635-.95-.995zM3 5.612c-.116 1.654 1.158 3.09 2.844 3.204C7.53 8.93 8.994 7.68 9.11 6.026c.116-1.655-1.158-3.09-2.844-3.205-1.686-.114-3.149 1.136-3.265 2.79zm2.245.152c-.031.438.307.819.754.85.447.03.835-.302.865-.74.031-.44-.307-.82-.754-.85-.447-.03-.835.301-.865.74z" transform="translate(-879 -205) translate(885 209) translate(13 12)"/>
                </g>
            </g>
        </g>
    </g>
</svg>
