<svg xmlns="http://www.w3.org/2000/svg" width="14" height="18" viewBox="0 0 14 18">
    <g fill="none" fill-rule="evenodd">
        <g>
            <g>
                <g fill="#AEAEAE">
                    <path d="M13.604 6.821C13.61 3.568 11.252.791 8.041.267 4.831-.257 1.713 1.625.683 4.71c-1.031 3.086.33 6.464 3.21 7.974-.147.229-.226.495-.227.768v1.42c0 1.57 1.273 2.843 2.842 2.843h.948c1.57 0 2.842-1.273 2.842-2.842v-1.421c0-.273-.08-.539-.227-.768 2.173-1.148 3.533-3.405 3.533-5.864zm-4.737 6.632v.473H6.5c-.392 0-.71.318-.71.71 0 .393.318.711.71.711h2.283c-.2.567-.735.946-1.336.948H6.5c-.785 0-1.421-.636-1.421-1.421v-1.421h3.79zm-1.894-1.421c-2.878 0-5.21-2.333-5.21-5.21 0-2.879 2.332-5.211 5.21-5.211 2.877 0 5.21 2.332 5.21 5.21 0 1.383-.55 2.709-1.528 3.686-.978.977-2.304 1.526-3.687 1.525h.005z" transform="translate(-27 -587) translate(24 586) translate(3 1)"/>
                    <path d="M6.973 2.795c-.393 0-.71.318-.71.71 0 .393.317.71.71.71 1.437.003 2.602 1.168 2.605 2.606 0 .392.318.71.71.71.393 0 .71-.318.71-.71-.002-2.223-1.803-4.024-4.025-4.026z" transform="translate(-27 -587) translate(24 586) translate(3 1)"/>
                </g>
                <path d="M0 0H20V20H0z" transform="translate(-27 -587) translate(24 586)"/>
            </g>
        </g>
    </g>
</svg>
