<svg xmlns="http://www.w3.org/2000/svg" width="42" height="42" viewBox="0 0 42 42">
    <g fill="none" fill-rule="evenodd">
        <g>
            <g transform="translate(-656 -296) translate(656 296)">
                <rect width="42" height="42" fill="#FFCBCF" rx="8"/>
                <g fill="#CF2E28">
                    <path d="M16.712 13.052c-.393-.598-1.061-.959-1.777-.96h-4.267V2.137c.001-1.015-.712-1.89-1.705-2.093-.994-.204-1.994.32-2.391 1.253l-6.4 14.934c-.282.66-.214 1.416.181 2.014.395.599 1.065.959 1.782.958H6.4v9.956c-.001 1.014.712 1.89 1.705 2.093.994.203 1.994-.32 2.391-1.254l6.4-14.933c.28-.66.211-1.416-.185-2.013zM8.535 29.16v-12.09h-6.4l6.4-14.932v12.088h6.4l-6.4 14.934z" transform="translate(12 5)"/>
                </g>
            </g>
        </g>
    </g>
</svg>
