<svg xmlns="http://www.w3.org/2000/svg" xmlns:xlink="http://www.w3.org/1999/xlink" width="60" height="60" viewBox="0 0 60 60">
    <defs>
        <filter id="24kb8bx1ba" width="137.5%" height="137.5%" x="-18.8%" y="-14.6%" filterUnits="objectBoundingBox">
            <feMorphology in="SourceAlpha" operator="dilate" radius="2" result="shadowSpreadOuter1"/>
            <feOffset dy="2" in="shadowSpreadOuter1" result="shadowOffsetOuter1"/>
            <feGaussianBlur in="shadowOffsetOuter1" result="shadowBlurOuter1" stdDeviation="2"/>
            <feComposite in="shadowBlurOuter1" in2="SourceAlpha" operator="out" result="shadowBlurOuter1"/>
            <feColorMatrix in="shadowBlurOuter1" values="0 0 0 0 0 0 0 0 0 0 0 0 0 0 0 0 0 0 0.5 0"/>
        </filter>
        <rect id="evojuyazob" width="48" height="48" x="0" y="0" rx="8"/>
    </defs>
    <g fill="none" fill-rule="evenodd">
        <g>
            <g>
                <g transform="translate(-561 -207) translate(567 211)">
                    <use fill="#000" filter="url(#24kb8bx1ba)" xlink:href="#evojuyazob"/>
                    <rect width="50" height="50" x="-1" y="-1" fill="#3E3E3E" stroke="#FDFDFD" stroke-width="2" rx="8"/>
                </g>
                <g fill="#FDFDFD" fill-rule="nonzero">
                    <g>
                        <path d="M2 2.934v10.132c5.33 3.235 10.67-3.234 16 0V2.934c-5.33-3.235-10.67 3.234-16 0zM.652 2.335V28H1.4V2.304c.357-.189.6-.608.6-1.1C2 .534 1.557 0 1 0 .443 0 0 .534 0 1.204c0 .513.27.953.652 1.131z" transform="translate(-561 -207) translate(567 211) translate(11 7) translate(7.5)"/>
                    </g>
                    <path stroke="#FDFDFD" d="M11.115 25l-.152 1.045c2.894.412 4.423 1.457 4.434 2.28 0 .265-.131.54-.404.814-1.038 1.034-3.637 1.752-6.455 1.795-1.922.02-3.713-.254-5.067-.782-1.169-.454-1.868-1.066-1.879-1.636-.01-.855 1.54-1.953 4.5-2.418l-.175-1.045C2.564 25.58.489 26.91.5 28.526c.011 1.035.917 1.964 2.556 2.608 1.42.56 3.276.866 5.242.866h.251c3.145-.042 5.985-.866 7.23-2.112.48-.475.732-1.024.72-1.573-.032-1.583-2.096-2.861-5.384-3.315z" transform="translate(-561 -207) translate(567 211) translate(11 7)"/>
                </g>
            </g>
        </g>
    </g>
</svg>
