<svg xmlns="http://www.w3.org/2000/svg" xmlns:xlink="http://www.w3.org/1999/xlink" width="52" height="52" viewBox="0 0 52 52">
    <defs>
        <filter id="fwoi0irwva" width="109.2%" height="117.6%" x="-4.6%" y="-8%" filterUnits="objectBoundingBox">
            <feMorphology in="SourceAlpha" operator="dilate" radius="2" result="shadowSpreadOuter1"/>
            <feOffset dy="2" in="shadowSpreadOuter1" result="shadowOffsetOuter1"/>
            <feGaussianBlur in="shadowOffsetOuter1" result="shadowBlurOuter1" stdDeviation="5"/>
            <feColorMatrix in="shadowBlurOuter1" values="0 0 0 0 0 0 0 0 0 0 0 0 0 0 0 0 0 0 0.1 0"/>
        </filter>
        <filter id="6rop7ta59e" width="109.2%" height="117.6%" x="-4.6%" y="-8%" filterUnits="objectBoundingBox">
            <feMorphology in="SourceAlpha" operator="dilate" radius="2" result="shadowSpreadOuter1"/>
            <feOffset dy="2" in="shadowSpreadOuter1" result="shadowOffsetOuter1"/>
            <feGaussianBlur in="shadowOffsetOuter1" result="shadowBlurOuter1" stdDeviation="5"/>
            <feColorMatrix in="shadowBlurOuter1" values="0 0 0 0 0 0 0 0 0 0 0 0 0 0 0 0 0 0 0.1 0"/>
        </filter>
        <rect id="rrk4fdunyb" width="480" height="250" x="0" y="0" rx="4"/>
        <rect id="ajk3jffxef" width="480" height="250" x="0" y="0" rx="4"/>
        <path id="ipbmgc42zc" d="M13 24.267L3.9 15.167 0.867 18.2 13 30.333 39 4.333 35.967 1.3z"/>
        <path id="cabokj8ixg" d="M13 24.267L3.9 15.167 0.867 18.2 13 30.333 39 4.333 35.967 1.3z"/>
    </defs>
    <g fill="none" fill-rule="evenodd">
        <g>
            <path fill="#FFF" d="M0 0H1440V4571H0z" transform="translate(-434 -861)"/>
            <g>
                <g>
                    <g transform="translate(-434 -861) translate(109 753) translate(111 80)">
                        <use fill="#000" filter="url(#fwoi0irwva)" xlink:href="#rrk4fdunyb"/>
                        <use fill="#FFF" xlink:href="#rrk4fdunyb"/>
                    </g>
                    <g>
                        <path d="M0 0L52 0 52 52 0 52z" transform="translate(-434 -861) translate(109 753) translate(111 80) translate(214 28)"/>
                        <g transform="translate(-434 -861) translate(109 753) translate(111 80) translate(214 28) translate(6.5 10.833)">
                            <mask id="nicdpek03d" fill="#fff">
                                <use xlink:href="#ipbmgc42zc"/>
                            </mask>
                            <use fill="#000" xlink:href="#ipbmgc42zc"/>
                            <g fill="#4CE2A7" mask="url(#nicdpek03d)">
                                <path d="M0 0L52 0 52 52 0 52z" transform="translate(-6.5 -10.833)"/>
                            </g>
                        </g>
                    </g>
                </g>
                <g>
                    <g transform="translate(-434 -861) translate(109 753) translate(111 80)">
                        <use fill="#000" filter="url(#6rop7ta59e)" xlink:href="#ajk3jffxef"/>
                        <use fill="#FFF" xlink:href="#ajk3jffxef"/>
                    </g>
                    <g>
                        <path d="M0 0L52 0 52 52 0 52z" transform="translate(-434 -861) translate(109 753) translate(111 80) translate(214 28)"/>
                        <g transform="translate(-434 -861) translate(109 753) translate(111 80) translate(214 28) translate(6.5 10.833)">
                            <mask id="3c8trv12uh" fill="#fff">
                                <use xlink:href="#cabokj8ixg"/>
                            </mask>
                            <use fill="#000" xlink:href="#cabokj8ixg"/>
                            <g fill="#4CE2A7" mask="url(#3c8trv12uh)">
                                <path d="M0 0L52 0 52 52 0 52z" transform="translate(-6.5 -10.833)"/>
                            </g>
                        </g>
                    </g>
                </g>
            </g>
        </g>
    </g>
</svg>
