<svg xmlns="http://www.w3.org/2000/svg" width="24" height="24" viewBox="0 0 24 24">
    <g fill="none" fill-rule="evenodd" opacity=".2">
        <g fill="#838383">
            <g>
                <g>
                    <g>
                        <path d="M12 4c5.5 0 9.097 3.439 11 8-1.903 4.561-5.5 8-11 8s-9.097-3.439-11-8c1.903-4.561 5.5-8 11-8zm0 3c-2.767 0-5 2.233-5 5s2.233 5 5 5 5-2.233 5-5-2.233-5-5-5zm0 2c1.662 0 3 1.338 3 3s-1.338 3-3 3-3-1.338-3-3 1.338-3 3-3z" transform="translate(-326 -381) translate(110 231) translate(20 150) translate(196)"/>
                    </g>
                </g>
            </g>
        </g>
    </g>
</svg>
