<svg xmlns="http://www.w3.org/2000/svg" xmlns:xlink="http://www.w3.org/1999/xlink" width="48" height="42" viewBox="0 0 48 42">
    <defs>
        <filter id="dwk1q5lx6a" width="109.2%" height="117.6%" x="-4.6%" y="-8%" filterUnits="objectBoundingBox">
            <feMorphology in="SourceAlpha" operator="dilate" radius="2" result="shadowSpreadOuter1"/>
            <feOffset dy="2" in="shadowSpreadOuter1" result="shadowOffsetOuter1"/>
            <feGaussianBlur in="shadowOffsetOuter1" result="shadowBlurOuter1" stdDeviation="5"/>
            <feColorMatrix in="shadowBlurOuter1" values="0 0 0 0 0 0 0 0 0 0 0 0 0 0 0 0 0 0 0.1 0"/>
        </filter>
        <filter id="xeel80ic5e" width="109.2%" height="117.6%" x="-4.6%" y="-8%" filterUnits="objectBoundingBox">
            <feMorphology in="SourceAlpha" operator="dilate" radius="2" result="shadowSpreadOuter1"/>
            <feOffset dy="2" in="shadowSpreadOuter1" result="shadowOffsetOuter1"/>
            <feGaussianBlur in="shadowOffsetOuter1" result="shadowBlurOuter1" stdDeviation="5"/>
            <feColorMatrix in="shadowBlurOuter1" values="0 0 0 0 0 0 0 0 0 0 0 0 0 0 0 0 0 0 0.1 0"/>
        </filter>
        <rect id="potj03wsdb" width="480" height="250" x="0" y="0" rx="4"/>
        <rect id="jyfb8jj10f" width="480" height="250" x="0" y="0" rx="4"/>
        <path id="v40uz7nd3c" d="M0 41.167h47.667L23.833 0 0 41.167zm26-6.5h-4.333v-4.334H26v4.334zM26 26h-4.333v-8.667H26V26z"/>
        <path id="ntqvqzps2g" d="M0 41.167h47.667L23.833 0 0 41.167zm26-6.5h-4.333v-4.334H26v4.334zM26 26h-4.333v-8.667H26V26z"/>
    </defs>
    <g fill="none" fill-rule="evenodd">
        <g>
            <path fill="#FFF" d="M0 0H1440V4571H0z" transform="translate(-936 -865)"/>
            <g>
                <g>
                    <g transform="translate(-936 -865) translate(109 753) translate(611 80)">
                        <use fill="#000" filter="url(#dwk1q5lx6a)" xlink:href="#potj03wsdb"/>
                        <use fill="#FFF" xlink:href="#potj03wsdb"/>
                    </g>
                    <g>
                        <path d="M0 0L52 0 52 52 0 52z" transform="translate(-936 -865) translate(109 753) translate(611 80) translate(214 28)"/>
                        <g transform="translate(-936 -865) translate(109 753) translate(611 80) translate(214 28) translate(2.167 4.333)">
                            <mask id="3kjmsdj8kd" fill="#fff">
                                <use xlink:href="#v40uz7nd3c"/>
                            </mask>
                            <use fill="#000" xlink:href="#v40uz7nd3c"/>
                            <g fill="#E24C4C" mask="url(#3kjmsdj8kd)">
                                <path d="M0 0L52 0 52 52 0 52z" transform="translate(-2.167 -4.333)"/>
                            </g>
                        </g>
                    </g>
                </g>
                <g>
                    <g transform="translate(-936 -865) translate(109 753) translate(611 80)">
                        <use fill="#000" filter="url(#xeel80ic5e)" xlink:href="#jyfb8jj10f"/>
                        <use fill="#FFF" xlink:href="#jyfb8jj10f"/>
                    </g>
                    <g>
                        <path d="M0 0L52 0 52 52 0 52z" transform="translate(-936 -865) translate(109 753) translate(611 80) translate(214 28)"/>
                        <g transform="translate(-936 -865) translate(109 753) translate(611 80) translate(214 28) translate(2.167 4.333)">
                            <mask id="7minvwamfh" fill="#fff">
                                <use xlink:href="#ntqvqzps2g"/>
                            </mask>
                            <use fill="#000" xlink:href="#ntqvqzps2g"/>
                            <g fill="#E24C4C" mask="url(#7minvwamfh)">
                                <path d="M0 0L52 0 52 52 0 52z" transform="translate(-2.167 -4.333)"/>
                            </g>
                        </g>
                    </g>
                </g>
            </g>
        </g>
    </g>
</svg>
