<svg xmlns="http://www.w3.org/2000/svg" width="18" height="18" viewBox="0 0 18 18">
    <g fill="none" fill-rule="evenodd">
        <g fill="#AEAEAE">
            <g>
                <path d="M9 0C4.03 0 0 4.03 0 9s4.03 9 9 9 9-4.03 9-9-4.03-9-9-9zm0 16.714c-4.26 0-7.714-3.454-7.714-7.714S4.74 1.286 9 1.286 16.714 4.74 16.714 9 13.26 16.714 9 16.714z" transform="translate(-477 -116) translate(477 116)"/>
                <g transform="translate(-477 -116) translate(477 116) translate(5.571 3.429)">
                    <path d="M3.643 0C.763 0 0 2.104 0 3.214c0 .355.288.643.643.643.355 0 .643-.288.643-.643 0-.197.064-1.928 2.357-1.928C5.824 1.286 6 2.494 6 4.07c0 .245-.6.63-1.041.909C4.1 5.537 3 6.227 3 7.5c0 .355.288.643.643.643.355 0 .643-.288.643-.643 0-.527.54-.909 1.363-1.436.822-.527 1.637-1.041 1.637-1.993 0-1.217 0-4.071-3.643-4.071z"/>
                    <circle cx="3.429" cy="10.286" r="1"/>
                </g>
            </g>
        </g>
    </g>
</svg>
