<svg xmlns="http://www.w3.org/2000/svg" width="20" height="17" viewBox="0 0 20 17">
    <g fill="none" fill-rule="evenodd">
        <g>
            <g>
                <g fill="#FFF" fill-rule="nonzero" stroke="#FFF">
                    <path d="M18 1.581c-.19-.4-.572-.668-1.011-.725l-5.92-.84c-.497-.077-.994.133-1.28.553-.287.401-.344.936-.115 1.394l.535 1.07L.756 8.476c-.669.381-.936 1.203-.63 1.91.152.381.458.668.82.82.192.077.383.115.574.115.21 0 .4-.038.592-.115l.458-.19v4.258c0 .248.21.478.478.478h2.597c.248 0 .477-.21.477-.478V9.488l1.872-.802v6.55c0 .248.21.477.477.477h2.597c.249 0 .478-.21.478-.477v-8.02l.687-.287.535 1.07c.134.286.382.496.65.61v6.665c0 .248.21.478.477.478h2.597c.267 0 .477-.21.477-.478V4.79l1.089-1.967c.115-.382.134-.86-.057-1.242zM5.149 14.797H3.506v-4.202l1.642-.706v4.908zm5.386 0H8.89V8.304l1.643-.707v7.2zm5.404 0h-1.642V8.686c.324-.096.61-.325.783-.63l.86-1.547v8.288zm1.203-12.413l-2.883 5.194c-.115.19-.306.21-.363.21-.077 0-.268-.02-.363-.23l-.726-1.45c-.114-.23-.382-.325-.61-.23L1.73 10.308c-.134.058-.306.058-.44 0-.133-.037-.248-.152-.305-.305-.115-.267-.019-.573.248-.725l9.835-5.672c.21-.115.287-.401.191-.611l-.725-1.452c-.096-.19-.02-.363.038-.42.038-.057.153-.172.325-.172h.057l5.9.821c.135.02.25.096.306.23.058.114.058.248-.019.382z" transform="translate(-152 -150) translate(152 148) translate(.833 2.5)"/>
                </g>
                <path d="M0 0H20V20H0z" transform="translate(-152 -150) translate(152 148)"/>
            </g>
        </g>
    </g>
</svg>
