<svg xmlns="http://www.w3.org/2000/svg" width="20" height="16" viewBox="0 0 20 16">
    <g fill="none" fill-rule="evenodd">
        <g>
            <g>
                <path fill="#FFF" fill-rule="nonzero" stroke="#FFF" d="M16.875 3.333c-1.123 0-2.04.917-2.04 2.04 0 .527.207.985.505 1.352l-2.567 4.102c-.183-.046-.367-.069-.573-.069-.367 0-.71.092-1.008.275L9.198 9.108c.16-.275.23-.618.23-.962 0-1.123-.918-2.04-2.04-2.04-1.123 0-2.04.917-2.04 2.04 0 .527.183.985.504 1.352l-2.43 3.942c-.182-.046-.366-.07-.55-.07-1.122 0-2.039.918-2.039 2.04 0 1.123.917 2.04 2.04 2.04s2.04-.917 2.04-2.04c0-.527-.184-.985-.505-1.352l2.475-3.918c.184.045.367.068.55.068.367 0 .71-.091 1.009-.275l1.993 1.925c-.16.275-.229.596-.229.94 0 1.123.917 2.04 2.04 2.04s2.04-.917 2.04-2.04c0-.527-.184-.986-.505-1.352l2.59-4.102c.183.046.367.068.55.068 1.123 0 2.04-.916 2.04-2.04-.023-1.122-.94-2.039-2.086-2.039zM2.85 16.304c-.504 0-.894-.412-.894-.894 0-.504.413-.893.894-.893.16 0 .298.046.435.114 0 0 .023 0 .023.023.023 0 .023.023.046.023 0 0 0 0 0 0 .23.16.39.436.39.733 0 .482-.39.894-.894.894zm3.667-8.158c0-.481.412-.894.893-.894.482 0 .894.413.894.894 0 .252-.091.458-.252.619h0c-.16.16-.39.275-.642.275-.504 0-.893-.39-.893-.894zm5.706 5.546c-.504 0-.894-.413-.894-.894 0-.23.092-.458.252-.619 0 0 0 0 0 0l.023-.023c.16-.16.39-.252.619-.252.504 0 .894.413.894.894 0 .481-.413.894-.894.894zm4.652-7.425c-.504 0-.894-.413-.894-.894 0-.504.413-.894.894-.894.504 0 .894.413.894.894.023.481-.39.894-.894.894z" transform="translate(-154 -486) translate(154 484)"/>
                <path d="M0 0H20V20H0z" transform="translate(-154 -486) translate(154 484)"/>
            </g>
        </g>
    </g>
</svg>
