<svg xmlns="http://www.w3.org/2000/svg" width="42" height="42" viewBox="0 0 42 42">
    <g fill="none" fill-rule="evenodd">
        <g>
            <g>
                <g transform="translate(-857 -139) translate(583 138) translate(274 1)">
                    <rect width="42" height="42" fill="#E0E0E0" rx="8"/>
                    <g fill="#838383">
                        <path d="M28.022 4.06c-.092.002-.184.017-.272.044-.091-.027-.186-.042-.28-.044h-4.978c-.611 0-1.106.495-1.106 1.107 0 .611.495 1.107 1.106 1.107h2.404L17.24 14.34l-3.178-4.214c-.193-.255-.486-.413-.804-.436-.322-.028-.639.092-.863.325l-7.603 7.647V1.107C4.793.496 4.298 0 3.687 0c-.61 0-1.106.496-1.106 1.107v1.476H1.106C.496 2.583 0 3.08 0 3.69c0 .612.495 1.108 1.106 1.108h1.475V7.75H1.106C.496 7.75 0 8.246 0 8.857c0 .612.495 1.107 1.106 1.107h1.475v2.953H1.106c-.61 0-1.106.495-1.106 1.107 0 .611.495 1.107 1.106 1.107h1.475v2.952H1.106C.496 18.083 0 18.58 0 19.19c0 .612.495 1.108 1.106 1.108h1.475v2.952H1.106c-.61 0-1.106.496-1.106 1.107 0 .612.495 1.107 1.106 1.107h1.475v1.846c0 .611.495 1.107 1.106 1.107h1.844v1.476c0 .611.495 1.107 1.106 1.107.61 0 1.106-.496 1.106-1.107v-1.476h2.95v1.476c0 .611.495 1.107 1.106 1.107.61 0 1.106-.496 1.106-1.107v-1.476h2.95v1.476c0 .611.495 1.107 1.106 1.107.61 0 1.106-.496 1.106-1.107v-1.476h2.95v1.476c0 .611.495 1.107 1.106 1.107.61 0 1.106-.496 1.106-1.107v-1.476h2.95v1.476c0 .611.495 1.107 1.106 1.107.61 0 1.106-.496 1.106-1.107v-1.764c.346-.304.466-.79.302-1.22-.165-.43-.58-.712-1.04-.707H4.794v-5.476c.083-.042.16-.094.229-.155l8.045-8.12 3.193 4.237c.196.258.496.418.819.436.324.012.637-.114.863-.347l8.967-9.455v2.546c0 .612.495 1.107 1.106 1.107.611 0 1.106-.495 1.106-1.107V5.196c0-.613-.486-1.117-1.099-1.136z" transform="translate(6 7)"/>
                    </g>
                </g>
            </g>
        </g>
    </g>
</svg>
