<?xml version="1.0" encoding="UTF-8"?>
<svg width="24px" height="24px" viewBox="0 0 24 24" version="1.1" xmlns="http://www.w3.org/2000/svg" xmlns:xlink="http://www.w3.org/1999/xlink">
    <title>Artboard</title>
    <g id="Artboard" stroke="none" stroke-width="1" fill="none" fill-rule="evenodd">
        <path d="M19.8573,13.4446468 C19.46702,13.4446468 19.0951467,13.5184005 18.75048,13.6469612 L18.2507867,12.8859775 C18.7432933,12.6743713 19.28618,12.5558283 19.8573,12.5558283 L16.1046867,6.21885879 C15.7968333,5.50317769 15.07912,5 14.2449533,5 L13.34706,5 C12.9751133,5 12.6735667,5.29839446 12.6735667,5.66671042 C12.6735667,6.03485942 12.9749667,6.33342374 13.34706,6.33342374 L14.2449533,6.33342374 C14.61624,6.33342374 14.9184467,6.63259784 14.9184467,7.00013199 L14.9184467,12.3334785 C14.9184467,13.8065914 13.7127,15.0001518 12.22462,15.0001518 L10.87756,15.0001518 L10.87756,12.5557557 C10.87756,11.2223465 9.5305,9.88911876 8.183682,9.88911876 L4.14281733,9.88911876 C2.79577933,9.88896632 1.4489452,11.2223828 1.4489452,12.5557557 L4.14281733,12.5557557 C6.144568,12.5557557 7.80176933,13.9981621 8.123116,15.8891155 L7.21142867,15.8891155 C6.90294467,14.4914985 5.64736067,13.4445742 4.14281733,13.4445742 C2.406966,13.4445742 1,14.8376179 1,16.5556567 C1,18.273623 2.40717133,19.6666667 4.14281733,19.6666667 C5.64736067,19.6666667 6.902952,18.6197424 7.21142867,17.2221254 L15.81634,17.2222706 L15.81634,16.5555842 C15.81634,15.3916413 16.3216067,14.3468223 17.12358,13.6158192 L17.6199733,14.371794 C17.06044,14.93373 16.71438,15.7045862 16.71438,16.5555842 C16.71438,18.2735504 18.1216467,19.6666667 19.8571533,19.6666667 C21.5927333,19.6666667 23,18.2735504 23,16.5555842 C23,14.8376179 21.5927333,13.4445742 19.8571533,13.4445742 L19.8573,13.4446468 Z M4.32159561,18.8518519 C3.38865745,18.8518519 2.62962963,17.938009 2.62962963,16.8148148 C2.62962963,15.6916207 3.38865745,14.7777778 4.32159561,14.7777778 C5.03016297,14.7777778 5.63721528,15.3053563 5.88888889,16.0509363 L4.32159561,16.0511027 C3.97122566,16.0511027 3.6870816,16.3929516 3.6870816,16.8149812 C3.6870816,17.2368444 3.97106676,17.5789428 4.32159561,17.5789428 L5.88888889,17.5789428 C5.63720837,18.3243565 5.03016297,18.8518519 4.32159561,18.8518519 L4.32159561,18.8518519 Z M19.3333749,18.8518519 C18.2101578,18.8518519 17.2962963,17.937953 17.2962963,16.81469 C17.2962963,16.3814885 17.433205,15.9802281 17.6646856,15.6495044 L18.6924991,17.231006 C18.839389,17.4564239 19.0840946,17.5786153 19.3339572,17.5786153 C19.4767714,17.5786153 19.6209997,17.5388553 19.7495907,17.4553425 C20.1035904,17.2253498 20.2035687,16.7519723 19.9739181,16.3987068 L18.9451896,14.8159574 C19.0709527,14.7914193 19.200625,14.7777778 19.3332917,14.7777778 C20.4565088,14.7777778 21.3703704,15.6915934 21.3703704,16.8148564 C21.3703704,17.937953 20.4565088,18.8518519 19.3332917,18.8518519 L19.3333749,18.8518519 Z" id="Shape" fill="#AEAEAE" fill-rule="nonzero"></path>
    </g>
</svg>