<svg xmlns="http://www.w3.org/2000/svg" width="18" height="18" viewBox="0 0 18 18">
    <g fill="none" fill-rule="evenodd">
        <g>
            <g>
                <g>
                    <path fill="#AEAEAE" fill-rule="nonzero" stroke="#AEAEAE" d="M17.714 4.13c-.075-.125-.204-.21-.351-.23-.147-.02-.295.028-.402.129l-1.977 1.924c-.543-.105-.968-.52-1.075-1.053l1.965-1.924c.101-.106.146-.252.123-.395-.023-.144-.112-.269-.241-.34-1.874-1.012-4.027-.67-5.62.89C8.751 4.484 8.338 6.52 9.088 8.286l-6.903 6.76c-.719.778-.688 1.971.07 2.713.76.741 1.979.77 2.772.065l7.031-6.875c1.888.584 3.948-.022 5.196-1.526 1.247-1.505 1.43-3.603.459-5.292zm-1.447 4.958c-1.083 1.072-2.713 1.41-4.147.862-.18-.07-.383-.028-.519.106l-7.233 7.082c-.409.4-1.072.4-1.48 0-.41-.4-.41-1.049 0-1.45L10.01 8.72c.148-.145.184-.366.09-.548-.58-1.186-.508-2.577.19-3.7.698-1.123 1.928-1.824 3.27-1.864.386 0 .771.063 1.137.186l-1.632 1.6c-.095.094-.146.223-.14.355.057 1.175 1.018 2.116 2.218 2.172.135.006.266-.044.362-.137l1.637-1.603c.524 1.363.177 2.901-.885 3.921l.01-.014z" transform="translate(-25 -430) translate(24 429)"/>
                    <path d="M0 0H20V20H0z" transform="translate(-25 -430) translate(24 429)"/>
                </g>
            </g>
        </g>
    </g>
</svg>
