<?xml version="1.0" encoding="UTF-8"?>
<svg width="25px" height="24px" viewBox="0 0 25 24" version="1.1" xmlns="http://www.w3.org/2000/svg" xmlns:xlink="http://www.w3.org/1999/xlink">
    <title>subscription_grey</title>
    <g id="june-Aug" stroke="none" stroke-width="1" fill="none" fill-rule="evenodd">
        <g id="Subscription" transform="translate(-18.000000, -245.000000)" fill="#AEAEAE" fill-rule="nonzero">
            <g id="subscription_grey" transform="translate(18.000000, 245.000000)">
                <path d="M22.8126219,0 L2.04057856,0 C0.915644228,0 0,0.933333333 0,2.08 L0,7.2 C0,8.34666667 0.915644228,9.28 2.04057856,9.28 L10.4645055,9.28 L10.4645055,15.7333333 L9.5750225,14.8266667 C8.9209909,14.16 7.90070162,14.0533333 7.11586371,14.5866667 C6.67112223,14.9066667 6.35718707,15.3866667 6.27870328,15.9466667 C6.20021948,16.5066667 6.35718707,17.0666667 6.69728349,17.4933333 L10.2552154,21.8666667 C11.3801497,23.2266667 13.002148,24 14.7287914,24 L16.9524988,24 C18.3390458,24 19.6209477,23.4666667 20.5889145,22.4533333 C21.5830425,21.4666667 22.1062678,20.16 22.1062678,18.7466667 L22.1062678,14.2666667 C22.1062678,13.2 21.2429461,12.32 20.1964955,12.32 C19.8825604,12.32 19.5686252,12.4 19.2808513,12.56 C18.9407549,11.92 18.3128846,11.52 17.5803692,11.52 C17.266434,11.52 16.9524988,11.6 16.6647249,11.76 C16.3246285,11.12 15.6967582,10.72 14.9642428,10.72 C14.7287914,10.72 14.4933401,10.7733333 14.28405,10.8533333 L14.28405,9.30666667 L22.7864606,9.30666667 C23.911395,9.30666667 24.8270392,8.37333333 24.8270392,7.22666667 L24.8270392,2.08 C24.8532005,0.933333333 23.9375562,0 22.8126219,0 Z M16.2984673,14.9866667 C16.6385637,14.9866667 16.9263376,14.6933333 16.9263376,14.3466667 L16.9263376,13.4666667 C16.9263376,13.0933333 17.2402727,12.7733333 17.6065304,12.7733333 C17.9727881,12.7733333 18.2867233,13.0933333 18.2867233,13.4666667 L18.2867233,15.1466667 C18.2867233,15.4933333 18.5744972,15.7866667 18.9145936,15.7866667 C19.25469,15.7866667 19.5424639,15.4933333 19.5424639,15.1466667 L19.5424639,14.3466667 C19.5424639,14.32 19.5424639,14.2933333 19.5424639,14.2666667 C19.5424639,13.8933333 19.8563991,13.5733333 20.2226568,13.5733333 C20.5889145,13.5733333 20.9028497,13.8933333 20.9028497,14.2666667 L20.9028497,18.7466667 C20.9028497,19.8133333 20.4842694,20.8266667 19.7517541,21.5733333 C19.0192387,22.32 18.0251107,22.7466667 16.9786601,22.7466667 L14.7549527,22.7466667 C13.394567,22.7466667 12.1126651,22.1333333 11.2493434,21.0666667 L7.66525025,16.6666667 C7.53444393,16.5066667 7.4821214,16.32 7.50828267,16.1066667 C7.53444393,15.8933333 7.63908899,15.7333333 7.82221783,15.6266667 C7.92686289,15.5466667 8.08383047,15.4933333 8.21463679,15.4933333 C8.39776563,15.4933333 8.58089448,15.5733333 8.71170079,15.7066667 L10.1505703,17.1466667 C10.4121829,17.4133333 10.8046019,17.4933333 11.1446983,17.36 C11.4847947,17.2266667 11.7202461,16.88 11.7202461,16.48 L11.7202461,7.09333333 C11.7202461,6.72 12.0341813,6.4 12.400439,6.4 C12.5835678,6.4 12.7666967,6.48 12.8713417,6.61333333 C13.002148,6.74666667 13.0806318,6.93333333 13.0806318,7.09333333 L13.0806318,13.5466667 C13.0806318,13.8933333 13.3684057,14.1866667 13.7085022,14.1866667 C14.0485986,14.1866667 14.3363725,13.8933333 14.3363725,13.5466667 L14.3363725,12.6666667 C14.3363725,12.2933333 14.6503076,11.9733333 15.0165653,11.9733333 C15.382823,11.9733333 15.6967582,12.2933333 15.6967582,12.6666667 L15.6967582,14.3466667 C15.6705969,14.6933333 15.9322096,14.9866667 16.2984673,14.9866667 Z M23.5451373,7.2 C23.5451373,7.62666667 23.2050409,7.97333333 22.8126219,7.97333333 L14.3102112,7.97333333 L14.3102112,7.09333333 C14.3102112,6.56 14.1009211,6.08 13.7346634,5.70666667 C13.3684057,5.33333333 12.897503,5.14666667 12.3742777,5.14666667 C11.3278272,5.14666667 10.4645055,6.02666667 10.4645055,7.09333333 L10.4645055,7.97333333 L2.04057856,7.97333333 C1.62199835,7.97333333 1.30806318,7.62666667 1.30806318,7.2 L1.30806318,2.08 C1.30806318,1.65333333 1.64815961,1.30666667 2.04057856,1.30666667 L22.8126219,1.30666667 C23.2312021,1.30666667 23.5451373,1.65333333 23.5451373,2.08 L23.5451373,7.2 Z" id="Shape"></path>
            </g>
        </g>
    </g>
</svg>