<svg xmlns="http://www.w3.org/2000/svg" xmlns:xlink="http://www.w3.org/1999/xlink" width="60" height="60" viewBox="0 0 60 60">
    <defs>
        <filter id="byhdxrbboa" width="137.5%" height="137.5%" x="-18.8%" y="-14.6%" filterUnits="objectBoundingBox">
            <feMorphology in="SourceAlpha" operator="dilate" radius="2" result="shadowSpreadOuter1"/>
            <feOffset dy="2" in="shadowSpreadOuter1" result="shadowOffsetOuter1"/>
            <feGaussianBlur in="shadowOffsetOuter1" result="shadowBlurOuter1" stdDeviation="2"/>
            <feComposite in="shadowBlurOuter1" in2="SourceAlpha" operator="out" result="shadowBlurOuter1"/>
            <feColorMatrix in="shadowBlurOuter1" values="0 0 0 0 0 0 0 0 0 0 0 0 0 0 0 0 0 0 0.5 0"/>
        </filter>
        <rect id="s32rndrt8b" width="48" height="48" x="0" y="0" rx="8"/>
    </defs>
    <g fill="none" fill-rule="evenodd">
        <g>
            <g>
                <g transform="translate(-1197 -205) translate(1203 209)">
                    <use fill="#000" filter="url(#byhdxrbboa)" xlink:href="#s32rndrt8b"/>
                    <rect width="50" height="50" x="-1" y="-1" fill="#3E3E3E" stroke="#FDFDFD" stroke-width="2" rx="8"/>
                </g>
                <g fill="#FDFDFD">
                    <path stroke="#FDFDFD" d="M7.648.053c-.16-.087-.355-.066-.493.053-.137.118-.19.31-.132.484.059.173.216.293.396.302 3.946 1.105 7.17 3.995 8.734 7.831.06.148.193.252.349.273.155.021.31-.043.406-.17.096-.126.119-.294.059-.442C15.292 4.3 11.854 1.226 7.647.053h0zM6.604 4.02c-.159-.048-.331-.01-.454.099-.122.109-.175.273-.139.43.036.157.156.283.314.332 3.018.923 5.487 3.052 6.785 5.852.068.147.212.248.377.265.166.016.327-.054.425-.185.097-.13.115-.302.047-.449-1.407-3.035-4.083-5.343-7.355-6.343z" transform="translate(-1197 -205) translate(1203 209) translate(16 7)"/>
                    <path fill-rule="nonzero" d="M8.26 24.641v-2.217H6.957c-.24 0-.434-.207-.434-.463s.194-.463.434-.463h1.305V20.11H6.956c-.24 0-.434-.208-.434-.463 0-.256.194-.463.434-.463h1.305v-1.389H6.956c-.24 0-.434-.207-.434-.463s.194-.463.434-.463h1.305v-1.388H6.956c-.24 0-.434-.208-.434-.463 0-.256.194-.463.434-.463h1.305v-2.083C8.26 10.554 6.8 9 5 9c-1.8 0-3.26 1.554-3.26 3.472v12.17c-1.586 1.45-2.155 3.8-1.428 5.886C1.04 32.615 2.91 34 5 34c2.09 0 3.96-1.385 4.688-3.472.727-2.087.158-4.435-1.427-5.887zM5 31.681c-1.347 0-2.507-1.011-2.771-2.418-.264-1.406.44-2.816 1.684-3.367V12.472c0-.64.487-1.158 1.087-1.158s1.087.519 1.087 1.158v13.424c1.243.551 1.948 1.96 1.684 3.367S6.347 31.682 5 31.682zm0 0c-1.347 0-2.507-1.011-2.771-2.418-.264-1.406.44-2.816 1.684-3.367V19.02h2.174v6.876c1.243.551 1.948 1.96 1.684 3.367S6.347 31.682 5 31.682z" transform="translate(-1197 -205) translate(1203 209) translate(16 7)"/>
                </g>
            </g>
        </g>
    </g>
</svg>
