<svg xmlns="http://www.w3.org/2000/svg" width="35" height="32" viewBox="0 0 35 32">
    <g fill="none" fill-rule="evenodd">
        <g fill="#E87F00">
            <g>
                <g>
                    <path d="M17.001 20.02c4.521 0 8.205-4.414 8.205-9.846 0-5.431-3.684-9.846-8.205-9.846s-8.205 4.415-8.205 9.846c0 5.432 3.692 9.847 8.205 9.847zm0-17.23c3.175 0 5.744 3.282 5.744 7.384 0 4.103-2.569 7.385-5.744 7.385s-5.744-3.282-5.744-7.385c0-4.102 2.569-7.384 5.744-7.384z" transform="translate(-114 -110) translate(114 110)"/>
                    <path d="M24.509 19.2c-.68-.068-1.286.428-1.354 1.108-.068.68.428 1.286 1.108 1.354 3.817.448 6.774 3.55 7.04 7.384H2.699c.291-3.823 3.236-6.911 7.04-7.384.68-.068 1.176-.675 1.108-1.354-.068-.68-.674-1.176-1.354-1.108-.09 0-9.312 1.05-9.312 11.069 0 .68.55 1.23 1.23 1.23h31.18c.68 0 1.23-.55 1.23-1.23C33.822 20.25 24.6 19.2 24.51 19.2z" transform="translate(-114 -110) translate(114 110)"/>
                </g>
            </g>
        </g>
    </g>
</svg>
