<svg xmlns="http://www.w3.org/2000/svg" width="20" height="14" viewBox="0 0 20 14">
    <g fill="none" fill-rule="evenodd">
        <g>
            <g>
                <g fill="#AEAEAE" fill-rule="nonzero">
                    <g>
                        <path d="M4.411 6.457c-.343 0-.63.286-.63.63 0 .344.287.63.63.63.344 0 .63-.286.63-.63 0-.344-.267-.63-.63-.63zM14.19 6.457c-.345 0-.631.286-.631.63 0 .344.286.63.63.63.344 0 .63-.286.63-.63 0-.344-.286-.63-.63-.63z" transform="translate(-22 -207) translate(22 204) matrix(-1 0 0 1 19.167 4.167)"/>
                        <path stroke="#AEAEAE" d="M.764 9.93h1.375c.172 1.013 1.07 1.796 2.139 1.796 1.07 0 1.948-.783 2.139-1.795h5.5c.172 1.012 1.07 1.795 2.139 1.795 1.069 0 1.947-.783 2.138-1.795h.726c.63 0 1.146-.516 1.146-1.146v-7.64C18.066.516 17.55 0 16.92 0H6.283c-.63 0-1.146.516-1.146 1.146v1.356H3.514c-.726 0-1.375.4-1.7 1.05 0 .02-.019.02-.019.038L1.09 5.443H.955c-.535 0-.955.42-.955.955v2.75c0 .439.344.783.764.783zm3.514 1.032c-.783 0-1.413-.63-1.413-1.413h0c0-.783.63-1.414 1.413-1.414s1.413.63 1.413 1.414c0 .764-.63 1.413-1.413 1.413zm9.778 0c-.783 0-1.414-.63-1.414-1.413s.63-1.414 1.414-1.414c.783 0 1.413.63 1.413 1.414 0 .764-.65 1.413-1.413 1.413zM5.9 1.146c0-.21.172-.382.382-.382H16.92c.21 0 .382.172.382.382v7.62c0 .21-.172.382-.382.382h-.726c-.171-1.013-1.069-1.796-2.138-1.796-1.07 0-1.967.783-2.14 1.815h-5.5c-.076-.401-.267-.783-.515-1.07V1.146zm-3.418 2.73c.21-.381.592-.61 1.012-.61h1.623v2.177H1.891l.592-1.566zM.763 6.399c0-.115.077-.191.192-.191h4.163v1.336c-.267-.114-.554-.171-.86-.171-1.069 0-1.947.783-2.138 1.795H.745v-2.77h.019z" transform="translate(-22 -207) translate(22 204) matrix(-1 0 0 1 19.167 4.167)"/>
                    </g>
                </g>
                <path d="M0 0H20V20H0z" transform="translate(-22 -207) translate(22 204)"/>
            </g>
        </g>
    </g>
</svg>
