<?xml version="1.0" encoding="UTF-8"?>
<svg width="32px" height="32px" viewBox="0 0 32 32" version="1.1" xmlns="http://www.w3.org/2000/svg" xmlns:xlink="http://www.w3.org/1999/xlink">
    <title>Vehicle</title>
    <g id="Page-1" stroke="none" stroke-width="1" fill="none" fill-rule="evenodd">
        <g id="Vehicle-Map-view-with-filters" transform="translate(-814.000000, -177.000000)">
            <g id="Sales" transform="translate(786.000000, 143.000000)">
                <g id="Vehicle" transform="translate(28.000000, 34.000000)">
                    <g transform="translate(16.166667, 16.166667) scale(-1, 1) translate(-16.166667, -16.166667) translate(1.666667, 6.666667)" fill-rule="nonzero" id="Group">
                        <g>
                            <path d="M7.05833333,10.3305556 C6.50833333,10.3305556 6.05,10.7888889 6.05,11.3388889 C6.05,11.8888889 6.50833333,12.3472222 7.05833333,12.3472222 C7.60833333,12.3472222 8.06666667,11.8888889 8.06666667,11.3388889 C8.06666667,10.7888889 7.63888889,10.3305556 7.05833333,10.3305556 Z" id="Path" fill="#AEAEAE"></path>
                            <path d="M22.7027778,10.3305556 C22.1527778,10.3305556 21.6944444,10.7888889 21.6944444,11.3388889 C21.6944444,11.8888889 22.1527778,12.3472222 22.7027778,12.3472222 C23.2527778,12.3472222 23.7111111,11.8888889 23.7111111,11.3388889 C23.7111111,10.7888889 23.2527778,10.3305556 22.7027778,10.3305556 Z" id="Path" fill="#AEAEAE"></path>
                            <path d="M1.22222222,15.8888889 L3.42222222,15.8888889 C3.69722222,17.5083333 5.13333333,18.7611111 6.84444444,18.7611111 C8.55555556,18.7611111 9.96111111,17.5083333 10.2666667,15.8888889 L19.0666667,15.8888889 C19.3416667,17.5083333 20.7777778,18.7611111 22.4888889,18.7611111 C24.2,18.7611111 25.6055556,17.5083333 25.9111111,15.8888889 L27.0722222,15.8888889 C28.0805556,15.8888889 28.9055556,15.0638889 28.9055556,14.0555556 L28.9055556,1.83333333 C28.9055556,0.825 28.0805556,0 27.0722222,0 L10.0527778,0 C9.04444444,0 8.21944444,0.825 8.21944444,1.83333333 L8.21944444,4.00277778 L5.62222222,4.00277778 C4.46111111,4.00277778 3.42222222,4.64444444 2.90277778,5.68333333 C2.90277778,5.71388889 2.87222222,5.71388889 2.87222222,5.74444444 L1.74166667,8.70833333 L1.52777778,8.70833333 C0.672222222,8.70833333 0,9.38055556 0,10.2361111 L0,14.6361111 C0,15.3388889 0.55,15.8888889 1.22222222,15.8888889 Z M6.84444444,17.5388889 C5.59166667,17.5388889 4.58333333,16.5305556 4.58333333,15.2777778 L4.58333333,15.2777778 C4.58333333,14.025 5.59166667,13.0166667 6.84444444,13.0166667 C8.09722222,13.0166667 9.10555556,14.025 9.10555556,15.2777778 C9.10555556,16.5 8.09722222,17.5388889 6.84444444,17.5388889 Z M22.4888889,17.5388889 C21.2361111,17.5388889 20.2277778,16.5305556 20.2277778,15.2777778 C20.2277778,14.025 21.2361111,13.0166667 22.4888889,13.0166667 C23.7416667,13.0166667 24.75,14.025 24.75,15.2777778 C24.75,16.5 23.7111111,17.5388889 22.4888889,17.5388889 Z M9.44166667,1.83333333 C9.44166667,1.49722222 9.71666667,1.22222222 10.0527778,1.22222222 L27.0722222,1.22222222 C27.4083333,1.22222222 27.6833333,1.49722222 27.6833333,1.83333333 L27.6833333,14.025 C27.6833333,14.3611111 27.4083333,14.6361111 27.0722222,14.6361111 L25.9111111,14.6361111 C25.6361111,13.0166667 24.2,11.7638889 22.4888889,11.7638889 C20.7777778,11.7638889 19.3416667,13.0166667 19.0666667,14.6666667 L10.2666667,14.6666667 C10.1444444,14.025 9.83888889,13.4138889 9.44166667,12.9555556 L9.44166667,9.96111111 L9.44166667,8.73888889 L9.44166667,1.83333333 Z M3.97222222,6.20277778 C4.30833333,5.59166667 4.91944444,5.225 5.59166667,5.225 L8.18888889,5.225 L8.18888889,8.70833333 L3.025,8.70833333 L3.97222222,6.20277778 Z M1.22222222,10.2361111 C1.22222222,10.0527778 1.34444444,9.93055556 1.52777778,9.93055556 L8.18888889,9.93055556 L8.18888889,12.0694444 C7.76111111,11.8861111 7.30277778,11.7944444 6.81388889,11.7944444 C5.10277778,11.7944444 3.69722222,13.0472222 3.39166667,14.6666667 L1.19166667,14.6666667 L1.19166667,10.2361111 L1.22222222,10.2361111 Z" id="Shape" stroke="#FFFFFF" fill="#FFFFFF"></path>
                        </g>
                    </g>
                    <rect id="Rectangle" x="0" y="0" width="32" height="32"></rect>
                </g>
            </g>
        </g>
    </g>
</svg>